<?xml version="1.0" encoding="UTF-8" standalone="no"?>
<svg
   width="1024"
   height="1024"
   version="1.1"
   id="svg17"
   sodipodi:docname="io.github.denysmb.klaro.svg"
   inkscape:version="1.4.2 (ebf0e940d0, 2025-05-08)"
   xmlns:inkscape="http://www.inkscape.org/namespaces/inkscape"
   xmlns:sodipodi="http://sodipodi.sourceforge.net/DTD/sodipodi-0.dtd"
   xmlns="http://www.w3.org/2000/svg"
   xmlns:svg="http://www.w3.org/2000/svg">
  <defs
     id="defs17" />
  <sodipodi:namedview
     id="namedview17"
     pagecolor="#ffffff"
     bordercolor="#000000"
     borderopacity="0.25"
     inkscape:showpageshadow="2"
     inkscape:pageopacity="0.0"
     inkscape:pagecheckerboard="0"
     inkscape:deskcolor="#d1d1d1"
     inkscape:zoom="0.76367188"
     inkscape:cx="511.34527"
     inkscape:cy="512"
     inkscape:window-width="2560"
     inkscape:window-height="984"
     inkscape:window-x="0"
     inkscape:window-y="0"
     inkscape:window-maximized="1"
     inkscape:current-layer="svg17" />
  <path
     fill="#fed700"
     d="M 165.39757,474.01386 C 120.64478,441.17208 116.08796,405.17352 116.10942,355.5823 V 230.83717 c -0.0107,-16.29081 -1.11037,-33.27896 1.87476,-49.34716 9.237,-49.75751 50.40657,-82.516146 99.91464,-87.931218 18.62689,-0.429129 37.3691,-0.01341 56.00671,-0.01341 l 478.1597,-0.09253 c 34.01652,-0.14188 59.87691,6.239805 84.69666,31.070278 35.22881,35.24759 30.99653,71.78524 30.99385,117.25415 l 0.0268,98.47438 38.27294,-0.0617 c 64.72339,-0.0483 98.46372,27.50717 98.97592,94.24478 l 0.059,272.83488 c 0.013,50.57554 -8.37605,100.4001 -69.74686,112.17969 -19.03724,3.65296 -71.1791,0.56323 -93.45626,0.56323 l -235.05811,0.067 c -90.43358,0.0241 -94.3467,-54.26873 -94.35474,-128.82721 l 0.0161,-99.22268 v -96.88393 c -22.91013,-1.80502 -61.85895,-0.97358 -85.02387,0 32.45556,27.01099 38.07715,51.99703 38.0101,90.66692 l -0.0107,143.84137 c 0.005,38.48215 5.8147,78.08003 -25.49294,107.19375 -31.11186,28.93134 -84.38554,24.15997 -125.75626,22.59096 -16.6368,26.083 -40.16112,77.87351 -76.76851,71.17105 -25.00213,-4.57559 -47.99003,-49.04676 -63.85976,-71.17105 l -44.44436,0.0483 C 95.800888,859.4656 72.091241,859.16789 45.885403,833.58644 5.0384885,793.71231 18.612913,693.63137 18.579655,638.36492 l -0.01636,-45.67006 C 18.580996,515.84321 45.297229,474.66828 126.4112,474.20697 Z M 222.6702,113.59912 c -41.90445,3.22651 -76.69608,29.8942 -84.99437,71.86302 -2.72496,13.7804 -1.79161,28.64972 -1.78356,42.65811 l -0.0134,118.6649 c -0.005,12.69954 -0.51496,25.61364 0.51763,38.26758 3.45986,42.40868 35.48361,81.5667 78.49307,88.03314 14.48042,2.17515 30.40915,0.94945 45.07464,0.94408 l 370.73798,-0.0161 c 8.27146,12.31869 17.67475,24.08755 26.67573,35.8886 36.4706,47.80497 33.08853,21.09974 63.78199,-14.75668 5.03153,-7.19327 10.37419,-14.15053 15.69539,-21.13192 33.67858,0.0617 57.65885,0.22798 83.37172,-25.32666 34.22036,-34.01116 26.99222,-75.10831 26.95735,-119.26837 l 0.0107,-123.86004 c -0.0536,-25.51709 -5.53308,-47.4724 -24.10364,-66.01614 C 792.67691,109.1764 756.6408,113.5696 717.37549,113.57497 Z M 867.78256,359.887 c -0.003,27.75928 0.60078,50.09545 -13.40492,75.24509 9.94506,-2.90467 55.1404,-8.80519 63.46282,-4.69628 14.10225,6.95993 4.65605,189.08498 -97.64831,214.93732 -66.93609,16.91573 -115.60468,-28.82138 -114.092,-96.41725 -34.71922,15.20458 -42.83781,1.76211 -63.34749,-25.3052 L 619.29003,493.17447 H 532.5255 v 57.95388 115.89166 h 452.03916 l 0.0563,-221.65051 c 0.29503,-72.08027 -22.28252,-85.69975 -90.70447,-85.54956 z m 25.27033,89.94544 c -44.06619,3.48399 -41.35194,2.73033 -73.45884,25.36421 -23.0335,16.23985 -43.33131,16.22912 -69.50818,17.97782 -28.82674,28.4754 -34.25254,78.17658 -9.34964,110.33712 15.96628,-40.38909 46.19842,-74.00866 86.41585,-91.46617 9.03049,-3.91848 12.97043,-3.30161 17.64525,5.27829 1.18547,12.60298 -15.01683,15.23944 -23.86225,20.39167 -29.72255,17.31536 -55.44079,46.94136 -63.71494,80.78086 48.10269,26.01327 95.03063,-0.93872 118.78292,-46.06164 19.77748,-37.56756 25.93817,-80.66016 26.08836,-122.60216 z m -788.49777,45.31334 c -58.36128,8.5209 -66.178134,50.43339 -66.201736,97.67514 l -0.0083,137.56267 c 0.03648,84.21925 12.500529,108.44895 98.528826,108.33362 l 46.59537,-0.0375 c 5.24342,5.43384 9.237,11.88955 13.60339,18.00732 l 22.13233,31.42834 c 19.97059,28.90989 29.1164,33.1824 49.82456,1.11842 7.1289,-11.03935 28.175,-47.05937 39.47987,-50.55408 l 50.35829,0.0322 c 12.78,0.0268 27.25238,1.45367 39.64616,-1.80771 43.42786,-11.42824 46.17428,-48.37893 46.14478,-84.52232 l -0.0563,-42.22898 c -0.0536,-44.72866 0.54445,-89.51632 0.0215,-134.23424 -0.42913,-36.50547 -23.39021,-71.36684 -60.54742,-78.86856 -16.1433,-3.26138 -34.05139,-1.93644 -50.50044,-1.92839 l -176.5115,0.0429 c -17.44409,-0.0188 -35.09739,-1.24179 -52.5093,-0.0188 z M 970.25589,687.50824 H 532.5255 l -0.0536,34.42687 c -0.0107,28.95817 2.3763,48.75442 26.26538,66.9334 23.66378,15.22604 44.00986,11.29951 70.83579,11.2405 l 267.55659,0.0322 c 87.94999,0.12337 87.6201,-39.29481 87.43504,-112.63296 -4.78747,-0.14752 -9.5213,-0.21457 -14.30877,0 z"
     id="path1"
     style="stroke-width:2.68206" />
  <path
     fill="#21b0fe"
     d="m 630.70218,474.01386 -370.73798,0.0161 c -14.66549,0.005 -30.59422,1.23107 -45.07464,-0.94408 -43.00946,-6.46644 -75.03321,-45.62446 -78.49307,-88.03314 -1.03259,-12.65394 -0.523,-25.56804 -0.51763,-38.26758 l 0.0134,-118.6649 c -0.008,-14.00839 -0.9414,-28.87771 1.78356,-42.65811 8.29829,-41.96882 43.08992,-68.63651 84.99437,-71.86302 l 494.70531,-0.0241 c 39.26531,-0.005 75.30142,-4.39857 105.71594,25.96767 18.57056,18.54374 24.05,40.49905 24.10364,66.01614 l -0.0107,123.86004 c 0.0349,44.16006 7.26301,85.25721 -26.95735,119.26837 -25.71287,25.55464 -49.69314,25.38835 -83.37172,25.32666 -5.3212,6.98139 -10.66386,13.93865 -15.69539,21.13192 -30.69346,35.85642 -27.31139,62.56165 -63.78199,14.75668 -9.00098,-11.80105 -18.40427,-23.56991 -26.67573,-35.8886 z M 270.43763,206.71475 c -10.90256,1.35712 -62.11911,62.0011 -72.61132,72.68105 l -0.0134,-41.91786 c 0,-7.97912 3.28821,-32.33487 -10.4922,-30.90534 -15.48888,1.60387 -10.44661,26.10178 -10.40638,36.771 l -0.0241,97.9192 c 0,6.73732 -1.09696,16.23717 0.45327,22.72238 2.00886,8.39215 14.68962,11.91906 18.92727,3.33648 3.18628,-6.46108 1.57169,-41.75962 1.55559,-50.82229 v -7.53658 c 3.40622,-3.83534 6.8607,-7.54194 10.53512,-11.12517 15.859,16.75749 30.03903,35.54798 44.74743,53.34878 5.69937,6.89557 19.17134,30.03904 30.208,17.369 8.81861,-10.1194 -11.19222,-27.13973 -17.00692,-34.09698 -14.49383,-17.34218 -29.30146,-34.47784 -43.63974,-51.94339 l 38.86568,-41.26344 c 5.24611,-5.59745 37.40396,-34.21231 8.90175,-34.53684 z m 51.73419,0 c -15.40574,6.75342 -7.99253,49.54831 -7.98985,67.27939 l 0.0161,53.88788 c 0.0215,40.86917 -7.42929,43.1516 36.11926,43.14624 l 45.80416,-0.0617 c 9.27723,-3.66101 11.00984,-16.39541 0.43181,-20.02423 -5.76106,-1.974 -51.3587,-0.78048 -61.40837,-0.76439 l 0.0134,-88.8458 c -0.005,-15.60152 7.63314,-55.09749 -12.98651,-54.6174 z m 149.34763,0 c -9.81365,3.37939 -9.86997,13.88769 -12.13631,22.77603 l -23.45995,92.21178 c -1.8828,7.61436 -11.68303,38.2649 -8.33583,45.24361 2.23952,4.66946 9.11363,7.55535 13.69995,4.51658 7.64386,-5.06104 10.19717,-27.71637 13.1823,-36.73613 h 41.02206 c 5.64841,-0.0778 11.35582,-0.32184 16.99887,0 1.76748,7.73506 5.81738,31.70459 12.06389,35.95834 8.80787,5.99707 16.24253,-2.14565 15.00879,-10.95621 -4.54341,-32.4502 -18.68857,-78.87391 -27.00295,-111.90612 -10.34201,-41.09447 -1.78625,-40.98987 -41.04082,-41.10788 z m 107.09183,0 c -13.75091,6.66491 -7.43198,66.74566 -7.43466,83.06329 0,11.91638 -10.47343,96.36092 15.69807,81.16976 7.67605,-4.45758 4.8438,-19.0882 4.83307,-26.30829 l 0.0402,-39.14998 h 32.81228 c 5.55454,12.7639 13.42637,33.38892 20.54455,44.68842 3.23188,8.33583 17.90005,39.37527 25.4098,14.49652 2.6016,-8.61745 -21.29552,-51.39089 -25.4098,-63.19194 40.6707,-28.08649 31.11454,-86.72161 -14.48042,-94.07849 -12.20604,-1.97131 -38.66989,-0.98163 -52.01312,-0.68929 z m 166.3921,0 c -22.23157,4.29129 -38.97028,19.76139 -43.28303,42.0466 -2.57477,13.29764 -2.54259,70.92967 0.11533,83.9886 5.61622,27.61445 32.19809,44.09301 59.39146,40.77262 22.70897,-4.79283 40.57683,-19.27326 44.46045,-42.72248 1.89085,-11.42019 2.03299,-73.10749 -0.31649,-83.64797 -6.53885,-29.32829 -32.07471,-42.57497 -60.36772,-40.43737 z"
     id="path2"
     style="stroke-width:2.68206" />
  <path
     fill="#fed700"
     d="m 197.82631,279.3958 c 10.49221,-10.67995 61.70876,-71.32393 72.61132,-72.68105 28.50221,0.32453 -3.65564,28.93939 -8.90175,34.53684 l -38.86568,41.26344 c 14.33828,17.46555 29.14591,34.60121 43.63974,51.94339 5.8147,6.95725 25.82553,23.97758 17.00692,34.09698 -11.03666,12.67004 -24.50863,-10.47343 -30.208,-17.369 -14.7084,-17.8008 -28.88843,-36.59129 -44.74743,-53.34878 -3.67442,3.58323 -7.1289,7.28983 -10.53512,11.12517 v 7.53658 c 0.0161,9.06267 1.63069,44.36121 -1.55559,50.82229 -4.23765,8.58258 -16.91841,5.05567 -18.92727,-3.33648 -1.55023,-6.48521 -0.45327,-15.98506 -0.45327,-22.72238 l 0.0241,-97.9192 c -0.0402,-10.66922 -5.0825,-35.16713 10.40638,-36.771 13.78041,-1.42953 10.4922,22.92622 10.4922,30.90534 z"
     id="path3"
     style="stroke-width:2.68206" />
  <path
     fill="#fed700"
     d="m 396.12148,370.96657 -45.80416,0.0617 c -43.54855,0.005 -36.0978,-2.27707 -36.11926,-43.14624 l -0.0161,-53.88788 c -0.003,-17.73108 -7.41589,-60.52597 7.98985,-67.27939 20.61965,-0.48009 12.98115,39.01588 12.98651,54.6174 l -0.0134,88.8458 c 10.04967,-0.0161 55.64731,-1.20961 61.40837,0.76439 10.57803,3.62882 8.84542,16.36322 -0.43181,20.02423 z"
     id="path4"
     style="stroke-width:2.68206" />
  <path
     fill="#fed700"
     d="m 454.46961,334.72662 c -2.98513,9.01976 -5.53844,31.67509 -13.1823,36.73613 -4.58632,3.03877 -11.46043,0.15288 -13.69995,-4.51658 -3.3472,-6.97871 6.45303,-37.62925 8.33583,-45.24361 l 23.45995,-92.21178 c 2.26634,-8.88834 2.32266,-19.39664 12.13631,-22.77603 39.25457,0.11801 30.69881,0.0134 41.04082,41.10788 8.31438,33.03221 22.45954,79.45592 27.00295,111.90612 1.23374,8.81056 -6.20092,16.95328 -15.00879,10.95621 -6.24651,-4.25375 -10.29641,-28.22328 -12.06389,-35.95834 -5.64305,-0.32184 -11.35046,-0.0778 -16.99887,0 z M 481.84,227.38804 c -8.16686,16.69849 -16.54024,65.90349 -22.47832,86.78599 h 26.40485 21.29285 C 504.20567,299.68824 492.85252,230.49387 481.84,227.38804 Z"
     id="path5"
     style="stroke-width:2.68206" />
  <path
     fill="#fed700"
     d="m 591.74799,305.48953 -0.0402,39.14998 c 0.0107,7.22009 2.84298,21.85071 -4.83307,26.30829 -26.1715,15.19116 -15.69807,-69.25338 -15.69807,-81.16976 0.003,-16.31763 -6.31625,-76.39838 7.43466,-83.06329 13.34323,-0.29234 39.80708,-1.28202 52.01312,0.68929 45.59496,7.35688 55.15112,65.992 14.48042,94.07849 4.11428,11.80105 28.0114,54.57449 25.4098,63.19194 -7.50975,24.87875 -22.17792,-6.16069 -25.4098,-14.49652 -7.11818,-11.2995 -14.99001,-31.92452 -20.54455,-44.68842 z m 0,-78.10149 c -0.005,19.27326 -0.32185,38.59748 0,57.86269 16.19694,0.10192 38.10666,3.59396 50.87056,-8.31706 10.18914,-13.00529 10.95352,-33.24141 -3.29624,-43.86503 -11.58917,-8.64159 -33.65981,-5.66182 -47.57432,-5.6806 z"
     id="path6"
     style="stroke-width:2.68206" />
  <path
     fill="#fed700"
     d="m 761.22714,373.52257 c -27.19337,3.32039 -53.77524,-13.15817 -59.39146,-40.77262 -2.65792,-13.05893 -2.6901,-70.69096 -0.11533,-83.9886 4.31275,-22.28521 21.05146,-37.75531 43.28303,-42.0466 28.29301,-2.1376 53.82887,11.10908 60.36772,40.43737 2.34948,10.54048 2.20734,72.22778 0.31649,83.64797 -3.88362,23.44922 -21.75148,37.92965 -44.46045,42.72248 z M 750.08587,227.38804 c -16.12988,2.75179 -26.12591,12.17386 -28.49953,28.36275 -1.23643,8.44311 -1.2257,63.58351 0.33794,71.68869 3.61005,18.68588 21.27407,28.7436 39.30286,26.3217 29.76278,-11.17881 24.82243,-36.16217 24.68564,-61.93673 -0.12605,-23.91858 3.98822,-70.9538 -35.82691,-64.43641 z"
     id="path7"
     style="stroke-width:2.68206" />
  <path
     fill="#21b0fe"
     d="m 761.22714,353.76118 c -18.02879,2.4219 -35.69281,-7.63582 -39.30286,-26.3217 -1.56364,-8.10518 -1.57437,-63.24558 -0.33794,-71.68869 2.37362,-16.18889 12.36965,-25.61096 28.49953,-28.36275 39.81513,-6.51739 35.70086,40.51783 35.82691,64.43641 0.13679,25.77456 5.07714,50.75792 -24.68564,61.93673 z"
     id="path8"
     style="stroke-width:2.68206" />
  <path
     fill="#21b0fe"
     d="m 591.74799,285.25073 c -0.32185,-19.26521 -0.005,-38.58943 0,-57.86269 13.91451,0.0188 35.98515,-2.96099 47.57432,5.6806 14.24976,10.62362 13.48538,30.85974 3.29624,43.86503 -12.7639,11.91102 -34.67362,8.41898 -50.87056,8.31706 z"
     id="path9"
     style="stroke-width:2.68206" />
  <path
     fill="#21b0fe"
     d="m 459.36168,314.17403 c 5.93808,-20.8825 14.31146,-70.0875 22.47832,-86.78599 11.01252,3.10583 22.36567,72.3002 25.21938,86.78599 h -21.29285 z"
     id="path10"
     style="stroke-width:2.68206" />
  <path
     fill="#fe218b"
     d="m 854.37764,435.13209 c 14.0057,-25.14964 13.40223,-47.48581 13.40492,-75.24509 l 26.13395,-0.0671 c 68.42195,-0.15019 90.9995,13.46929 90.70447,85.54956 l -0.0563,221.65051 H 532.5255 V 551.12835 493.17447 h 86.76453 l 23.46263,30.47621 c 20.50968,27.06731 28.62827,40.50978 63.34749,25.3052 -1.51268,67.59587 47.15591,113.33298 114.092,96.41725 102.30436,-25.85234 111.75056,-207.97739 97.64831,-214.93732 -8.32242,-4.10891 -53.51776,1.79161 -63.46282,4.69628 z"
     id="path11"
     style="stroke-width:2.68206" />
  <path
     fill="#f70200"
     d="m 750.08587,493.17447 c 26.17687,-1.7487 46.47468,-1.73797 69.50818,-17.97782 32.1069,-22.63388 29.39265,-21.88022 73.45884,-25.36421 h 9.03853 c -0.15019,41.942 -6.31088,85.0346 -26.08836,122.60216 -23.75229,45.12292 -70.68023,72.07491 -118.78292,46.06164 8.27415,-33.8395 33.99239,-63.4655 63.71494,-80.78086 8.84542,-5.15223 25.04772,-7.78869 23.86225,-20.39167 -4.67482,-8.5799 -8.61476,-9.19677 -17.64525,-5.27829 -40.21743,17.45751 -70.44957,51.07708 -86.41585,91.46617 -24.9029,-32.16054 -19.4771,-81.86172 9.34964,-110.33712 z"
     id="path12"
     style="stroke-width:2.68206" />
  <path
     fill="#fe218b"
     d="m 183.46927,838.67967 -46.59537,0.0375 C 50.845599,838.83254 38.381546,814.60284 38.34507,730.38359 l 0.0083,-137.56267 c 0.0236,-47.24175 7.840456,-89.15424 66.20174,-97.67514 17.41191,-1.22301 35.06521,0 52.5093,0.0188 l 176.5115,-0.0429 c 16.44905,-0.008 34.35714,-1.33299 50.50044,1.92839 37.15721,7.50172 60.11829,42.36309 60.54742,78.86856 0.523,44.71792 -0.0751,89.50558 -0.0215,134.23424 l 0.0563,42.22898 c 0.0295,36.14339 -2.71692,73.09408 -46.14478,84.52232 -12.39378,3.26138 -26.86616,1.83453 -39.64616,1.80771 l -50.35829,-0.0322 c -11.30487,3.49471 -32.35097,39.51473 -39.47987,50.55408 -20.70816,32.06398 -29.85397,27.79147 -49.82456,-1.11842 L 197.07258,856.687 c -4.36639,-6.11777 -8.35997,-12.57348 -13.60339,-18.00732 z M 210.609,580.38958 c -13.45856,7.1906 -62.60725,61.89382 -74.69796,78.09344 -0.60883,-24.06073 0.0375,-48.25019 0,-72.32701 -25.32934,-24.44158 -21.75952,24.08218 -21.75684,35.44069 l -0.005,89.65578 c 0.008,8.72205 -0.40231,17.68012 0.47204,26.35925 0.90385,8.95271 12.64589,13.25204 18.21384,5.55186 4.85453,-6.71051 3.11119,-37.41737 3.07632,-46.36471 -0.0188,-3.09241 -0.12069,-6.20628 0,-9.29064 4.39589,-5.17905 8.77837,-10.59144 13.9762,-14.98734 16.65557,19.91964 39.19021,53.94957 57.10098,70.66146 6.1875,5.77447 18.63225,4.02845 17.26976,-6.39938 -1.71115,-13.08039 -49.05749,-63.34213 -58.86041,-78.29996 12.5413,-21.82121 46.57123,-44.92176 56.95347,-63.62911 4.57827,-8.25268 -3.57518,-15.89654 -11.74204,-14.46433 z m 103.60784,0 c -22.71702,7.21742 -27.05123,44.59187 -33.67859,65.469 l -16.87281,53.35951 c -2.33876,7.44539 -23.4224,55.08676 3.00658,46.72411 7.3837,-2.33875 14.43483,-33.26823 17.5326,-41.73816 h 34.77287 30.02294 c 2.92076,9.07876 9.38183,38.49555 16.97473,42.15656 5.02349,2.4219 12.03975,-1.32494 13.83673,-6.32161 2.48358,-6.90629 -5.14687,-25.07991 -7.24423,-32.03716 l -27.52327,-90.22438 c -5.05299,-16.39005 -9.03316,-39.01319 -30.82755,-37.38787 z"
     id="path13"
     style="stroke-width:2.68206" />
  <path
     fill="#fed700"
     d="m 135.91104,658.48302 c 12.09071,-16.19962 61.2394,-70.90284 74.69796,-78.09344 8.16686,-1.43221 16.32031,6.21165 11.74204,14.46433 -10.38224,18.70735 -44.41217,41.8079 -56.95347,63.62911 9.80292,14.95783 57.14926,65.21957 58.86041,78.29996 1.36249,10.42783 -11.08226,12.17385 -17.26976,6.39938 -17.91077,-16.71189 -40.44541,-50.74182 -57.10098,-70.66146 -5.19783,4.3959 -9.58031,9.80829 -13.9762,14.98734 -0.12069,3.08436 -0.0188,6.19823 0,9.29064 0.0349,8.94734 1.77821,39.6542 -3.07632,46.36471 -5.56795,7.70018 -17.30999,3.40085 -18.21384,-5.55186 -0.87435,-8.67913 -0.464,-17.6372 -0.47204,-26.35925 l 0.005,-89.65578 c -0.003,-11.35851 -3.5725,-59.88227 21.75684,-35.44069 0.0375,24.07682 -0.60883,48.26628 0,72.32701 z"
     id="path14"
     style="stroke-width:2.68206" />
  <path
     fill="#fed700"
     d="m 284.20462,704.20404 c -3.09777,8.46993 -10.1489,39.39941 -17.5326,41.73816 -26.42898,8.36265 -5.34534,-39.27872 -3.00658,-46.72411 l 16.87281,-53.35951 c 6.62736,-20.87713 10.96157,-58.25158 33.67859,-65.469 21.79439,-1.62532 25.77456,20.99782 30.82755,37.38787 l 27.52327,90.22438 c 2.09736,6.95725 9.72781,25.13087 7.24423,32.03716 -1.79698,4.99667 -8.81324,8.74351 -13.83673,6.32161 -7.5929,-3.66101 -14.05397,-33.0778 -16.97473,-42.15656 h -30.02294 z m 33.2575,-100.69245 c -6.1875,8.93125 -21.42694,64.66707 -26.71864,79.61953 8.90174,0.49082 17.81153,0.18238 26.71864,0 h 25.92744 c -3.07632,-10.13013 -22.40053,-75.82978 -25.92744,-79.61953 z"
     id="path15"
     style="stroke-width:2.68206" />
  <path
     fill="#fe218b"
     d="m 290.74348,683.13112 c 5.2917,-14.95246 20.53114,-70.68828 26.71864,-79.61953 3.52691,3.78975 22.85112,69.4894 25.92744,79.61953 h -25.92744 c -8.90711,0.18238 -17.8169,0.49082 -26.71864,0 z"
     id="path16"
     style="stroke-width:2.68206" />
  <path
     fill="#21b0fe"
     d="m 532.5255,687.50824 h 437.73039 c 4.78747,-0.21457 9.5213,-0.14752 14.30877,0 0.18506,73.33815 0.51495,112.75633 -87.43504,112.63296 L 629.57303,800.109 c -26.82593,0.059 -47.17201,3.98554 -70.83579,-11.2405 -23.88908,-18.17898 -26.27611,-37.97523 -26.26538,-66.9334 z"
     id="path17"
     style="stroke-width:2.68206" />
</svg>
