<?xml version="1.0" encoding="utf-8" ?>
<svg xmlns="http://www.w3.org/2000/svg" xmlns:xlink="http://www.w3.org/1999/xlink" width="1024" height="1024">
	<path fill="#FED700" transform="scale(2 2)" d="M126.613 241.873C109.927 229.628 108.228 216.206 108.236 197.716L108.236 151.205C108.232 145.131 107.822 138.797 108.935 132.806C112.379 114.254 127.729 102.04 146.188 100.021C153.133 99.861 160.121 100.016 167.07 100.016L345.351 99.9815C358.034 99.9286 367.676 102.308 376.93 111.566C390.065 124.708 388.487 138.331 388.486 155.284L388.496 192L402.766 191.977C426.898 191.959 439.478 202.233 439.669 227.116L439.691 328.842C439.696 347.699 436.568 366.276 413.686 370.668C406.588 372.03 387.147 370.878 378.841 370.878L291.2 370.903C257.482 370.912 256.023 350.669 256.02 322.87L256.026 285.875L256.026 249.752C247.484 249.079 232.962 249.389 224.325 249.752C236.426 259.823 238.522 269.139 238.497 283.557L238.493 337.188C238.495 351.536 240.661 366.3 228.988 377.155C217.388 387.942 197.525 386.163 182.1 385.578C175.897 395.303 167.126 414.613 153.477 412.114C144.155 410.408 135.584 393.827 129.667 385.578L113.096 385.596C100.664 385.588 91.8239 385.477 82.0531 375.939C66.8234 361.072 71.8846 323.757 71.8722 303.151L71.8661 286.123C71.8727 257.469 81.8338 242.117 112.077 241.945L126.613 241.873ZM147.967 107.493C132.343 108.696 119.371 118.639 116.277 134.287C115.261 139.425 115.609 144.969 115.612 150.192L115.607 194.436C115.605 199.171 115.415 203.986 115.8 208.704C117.09 224.516 129.03 239.116 145.066 241.527C150.465 242.338 156.404 241.881 161.872 241.879L300.101 241.873C303.185 246.466 306.691 250.854 310.047 255.254C323.645 273.078 322.384 263.121 333.828 249.752C335.704 247.07 337.696 244.476 339.68 241.873C352.237 241.896 361.178 241.958 370.765 232.43C383.524 219.749 380.829 204.426 380.816 187.961L380.82 141.78C380.8 132.266 378.757 124.08 371.833 117.166C360.493 105.844 347.057 107.482 332.417 107.484L147.967 107.493ZM388.496 199.321C388.495 209.671 388.72 217.999 383.498 227.376C387.206 226.293 404.057 224.093 407.16 225.625C412.418 228.22 408.896 296.125 370.752 305.764C345.795 312.071 327.649 295.018 328.213 269.815C315.268 275.484 312.241 270.472 304.594 260.38L295.846 249.017L263.496 249.017L263.496 270.625L263.496 313.835L432.038 313.835L432.059 231.193C432.169 204.318 423.751 199.24 398.24 199.296L388.496 199.321ZM397.918 232.857C381.488 234.156 382.5 233.875 370.529 242.314C361.941 248.369 354.373 248.365 344.613 249.017C333.865 259.634 331.842 278.165 341.127 290.156C347.08 275.097 358.352 262.562 373.347 256.053C376.714 254.592 378.183 254.822 379.926 258.021C380.368 262.72 374.327 263.703 371.029 265.624C359.947 272.08 350.358 283.126 347.273 295.743C365.208 305.442 382.705 295.393 391.561 278.569C398.935 264.562 401.232 248.495 401.288 232.857L397.918 232.857ZM103.928 249.752C82.1681 252.929 79.2536 268.556 79.2448 286.17L79.2417 337.46C79.2553 368.861 83.9025 377.895 115.978 377.852L133.351 377.838C135.306 379.864 136.795 382.271 138.423 384.552L146.675 396.27C154.121 407.049 157.531 408.642 165.252 396.687C167.91 392.571 175.757 379.141 179.972 377.838L198.748 377.85C203.513 377.86 208.909 378.392 213.53 377.176C229.722 372.915 230.746 359.138 230.735 345.662L230.714 329.917C230.694 313.24 230.917 296.541 230.722 279.868C230.562 266.257 222.001 253.259 208.147 250.462C202.128 249.246 195.451 249.74 189.318 249.743L123.506 249.759C117.002 249.752 110.42 249.296 103.928 249.752ZM426.703 321.474L263.496 321.474L263.476 334.31C263.472 345.107 264.362 352.488 273.269 359.266C282.092 364.943 289.678 363.479 299.68 363.457L399.438 363.469C432.23 363.515 432.107 348.818 432.038 321.474C430.253 321.419 428.488 321.394 426.703 321.474Z"/>
	<path fill="#21B0FE" transform="scale(2 2)" d="M300.101 241.873L161.872 241.879C156.404 241.881 150.465 242.338 145.066 241.527C129.03 239.116 117.09 224.516 115.8 208.704C115.415 203.986 115.605 199.171 115.607 194.436L115.612 150.192C115.609 144.969 115.261 139.425 116.277 134.287C119.371 118.639 132.343 108.696 147.967 107.493L332.417 107.484C347.057 107.482 360.493 105.844 371.833 117.166C378.757 124.08 380.8 132.266 380.82 141.78L380.816 187.961C380.829 204.426 383.524 219.749 370.765 232.43C361.178 241.958 352.237 241.896 339.68 241.873C337.696 244.476 335.704 247.07 333.828 249.752C322.384 263.121 323.645 273.078 310.047 255.254C306.691 250.854 303.185 246.466 300.101 241.873ZM165.777 142.211C161.712 142.717 142.616 165.328 138.704 169.31L138.699 153.681C138.699 150.706 139.925 141.625 134.787 142.158C129.012 142.756 130.892 151.89 130.907 155.868L130.898 192.377C130.898 194.889 130.489 198.431 131.067 200.849C131.816 203.978 136.544 205.293 138.124 202.093C139.312 199.684 138.71 186.523 138.704 183.144L138.704 180.334C139.974 178.904 141.262 177.522 142.632 176.186C148.545 182.434 153.832 189.44 159.316 196.077C161.441 198.648 166.464 207.277 170.579 202.553C173.867 198.78 166.406 192.434 164.238 189.84C158.834 183.374 153.313 176.985 147.967 170.473L162.458 155.088C164.414 153.001 176.404 142.332 165.777 142.211ZM185.066 142.211C179.322 144.729 182.086 160.685 182.087 167.296L182.093 187.388C182.101 202.626 179.323 203.477 195.56 203.475L212.638 203.452C216.097 202.087 216.743 197.339 212.799 195.986C210.651 195.25 193.65 195.695 189.903 195.701L189.908 162.575C189.906 156.758 192.754 142.032 185.066 142.211ZM240.75 142.211C237.091 143.471 237.07 147.389 236.225 150.703L227.478 185.084C226.776 187.923 223.122 199.351 224.37 201.953C225.205 203.694 227.768 204.77 229.478 203.637C232.328 201.75 233.28 193.303 234.393 189.94L249.688 189.94C251.794 189.911 253.922 189.82 256.026 189.94C256.685 192.824 258.195 201.761 260.524 203.347C263.808 205.583 266.58 202.547 266.12 199.262C264.426 187.163 259.152 169.854 256.052 157.538C252.196 142.216 255.386 142.255 240.75 142.211ZM280.679 142.211C275.552 144.696 277.908 167.097 277.907 173.181C277.907 177.624 274.002 209.109 283.76 203.445C286.622 201.783 285.566 196.328 285.562 193.636L285.577 179.039L297.811 179.039C299.882 183.798 302.817 191.488 305.471 195.701C306.676 198.809 312.145 210.382 314.945 201.106C315.915 197.893 307.005 181.945 305.471 177.545C320.635 167.073 317.072 145.211 300.072 142.468C295.521 141.733 285.654 142.102 280.679 142.211ZM342.718 142.211C334.429 143.811 328.188 149.579 326.58 157.888C325.62 162.846 325.632 184.334 326.623 189.203C328.717 199.499 338.628 205.643 348.767 204.405C357.234 202.618 363.896 197.219 365.344 188.476C366.049 184.218 366.102 161.218 365.226 157.288C362.788 146.353 353.267 141.414 342.718 142.211Z"/>
	<path fill="#FED700" transform="scale(2 2)" d="M138.704 169.31C142.616 165.328 161.712 142.717 165.777 142.211C176.404 142.332 164.414 153.001 162.458 155.088L147.967 170.473C153.313 176.985 158.834 183.374 164.238 189.84C166.406 192.434 173.867 198.78 170.579 202.553C166.464 207.277 161.441 198.648 159.316 196.077C153.832 189.44 148.545 182.434 142.632 176.186C141.262 177.522 139.974 178.904 138.704 180.334L138.704 183.144C138.71 186.523 139.312 199.684 138.124 202.093C136.544 205.293 131.816 203.978 131.067 200.849C130.489 198.431 130.898 194.889 130.898 192.377L130.907 155.868C130.892 151.89 129.012 142.756 134.787 142.158C139.925 141.625 138.699 150.706 138.699 153.681L138.704 169.31Z"/>
	<path fill="#FED700" transform="scale(2 2)" d="M212.638 203.452L195.56 203.475C179.323 203.477 182.101 202.626 182.093 187.388L182.087 167.296C182.086 160.685 179.322 144.729 185.066 142.211C192.754 142.032 189.906 156.758 189.908 162.575L189.903 195.701C193.65 195.695 210.651 195.25 212.799 195.986C216.743 197.339 216.097 202.087 212.638 203.452Z"/>
	<path fill="#FED700" transform="scale(2 2)" d="M234.393 189.94C233.28 193.303 232.328 201.75 229.478 203.637C227.768 204.77 225.205 203.694 224.37 201.953C223.122 199.351 226.776 187.923 227.478 185.084L236.225 150.703C237.07 147.389 237.091 143.471 240.75 142.211C255.386 142.255 252.196 142.216 256.052 157.538C259.152 169.854 264.426 187.163 266.12 199.262C266.58 202.547 263.808 205.583 260.524 203.347C258.195 201.761 256.685 192.824 256.026 189.94C253.922 189.82 251.794 189.911 249.688 189.94L234.393 189.94ZM244.598 149.919C241.553 156.145 238.431 174.491 236.217 182.277L246.062 182.277L254.001 182.277C252.937 176.876 248.704 151.077 244.598 149.919Z"/>
	<path fill="#FED700" transform="scale(2 2)" d="M285.577 179.039L285.562 193.636C285.566 196.328 286.622 201.783 283.76 203.445C274.002 209.109 277.907 177.624 277.907 173.181C277.908 167.097 275.552 144.696 280.679 142.211C285.654 142.102 295.521 141.733 300.072 142.468C317.072 145.211 320.635 167.073 305.471 177.545C307.005 181.945 315.915 197.893 314.945 201.106C312.145 210.382 306.676 198.809 305.471 195.701C302.817 191.488 299.882 183.798 297.811 179.039L285.577 179.039ZM285.577 149.919C285.575 157.105 285.457 164.31 285.577 171.493C291.616 171.531 299.785 172.833 304.544 168.392C308.343 163.543 308.628 155.998 303.315 152.037C298.994 148.815 290.765 149.926 285.577 149.919Z"/>
	<path fill="#FED700" transform="scale(2 2)" d="M348.767 204.405C338.628 205.643 328.717 199.499 326.623 189.203C325.632 184.334 325.62 162.846 326.58 157.888C328.188 149.579 334.429 143.811 342.718 142.211C353.267 141.414 362.788 146.353 365.226 157.288C366.102 161.218 366.049 184.218 365.344 188.476C363.896 197.219 357.234 202.618 348.767 204.405ZM344.613 149.919C338.599 150.945 334.872 154.458 333.987 160.494C333.526 163.642 333.53 184.201 334.113 187.223C335.459 194.19 342.045 197.94 348.767 197.037C359.864 192.869 358.022 183.554 357.971 173.944C357.924 165.026 359.458 147.489 344.613 149.919Z"/>
	<path fill="#21B0FE" transform="scale(2 2)" d="M348.767 197.037C342.045 197.94 335.459 194.19 334.113 187.223C333.53 184.201 333.526 163.642 333.987 160.494C334.872 154.458 338.599 150.945 344.613 149.919C359.458 147.489 357.924 165.026 357.971 173.944C358.022 183.554 359.864 192.869 348.767 197.037Z"/>
	<path fill="#21B0FE" transform="scale(2 2)" d="M285.577 171.493C285.457 164.31 285.575 157.105 285.577 149.919C290.765 149.926 298.994 148.815 303.315 152.037C308.628 155.998 308.343 163.543 304.544 168.392C299.785 172.833 291.616 171.531 285.577 171.493Z"/>
	<path fill="#21B0FE" transform="scale(2 2)" d="M236.217 182.277C238.431 174.491 241.553 156.145 244.598 149.919C248.704 151.077 252.937 176.876 254.001 182.277L246.062 182.277L236.217 182.277Z"/>
	<path fill="#FE218B" transform="scale(2 2)" d="M383.498 227.376C388.72 217.999 388.495 209.671 388.496 199.321L398.24 199.296C423.751 199.24 432.169 204.318 432.059 231.193L432.038 313.835L263.496 313.835L263.496 270.625L263.496 249.017L295.846 249.017L304.594 260.38C312.241 270.472 315.268 275.484 328.213 269.815C327.649 295.018 345.795 312.071 370.752 305.764C408.896 296.125 412.418 228.22 407.16 225.625C404.057 224.093 387.206 226.293 383.498 227.376Z"/>
	<path fill="#F70200" transform="scale(2 2)" d="M344.613 249.017C354.373 248.365 361.941 248.369 370.529 242.314C382.5 233.875 381.488 234.156 397.918 232.857L401.288 232.857C401.232 248.495 398.935 264.562 391.561 278.569C382.705 295.393 365.208 305.442 347.273 295.743C350.358 283.126 359.947 272.08 371.029 265.624C374.327 263.703 380.368 262.72 379.926 258.021C378.183 254.822 376.714 254.592 373.347 256.053C358.352 262.562 347.08 275.097 341.127 290.156C331.842 278.165 333.865 259.634 344.613 249.017Z"/>
	<path fill="#FE218B" transform="scale(2 2)" d="M133.351 377.838L115.978 377.852C83.9025 377.895 79.2553 368.861 79.2417 337.46L79.2448 286.17C79.2536 268.556 82.1681 252.929 103.928 249.752C110.42 249.296 117.002 249.752 123.506 249.759L189.318 249.743C195.451 249.74 202.128 249.246 208.147 250.462C222.001 253.259 230.562 266.257 230.722 279.868C230.917 296.541 230.694 313.24 230.714 329.917L230.735 345.662C230.746 359.138 229.722 372.915 213.53 377.176C208.909 378.392 203.513 377.86 198.748 377.85L179.972 377.838C175.757 379.141 167.91 392.571 165.252 396.687C157.531 408.642 154.121 407.049 146.675 396.27L138.423 384.552C136.795 382.271 135.306 379.864 133.351 377.838ZM143.47 281.535C138.452 284.216 120.127 304.612 115.619 310.652C115.392 301.681 115.633 292.662 115.619 283.685C106.175 274.572 107.506 292.664 107.507 296.899L107.505 330.327C107.508 333.579 107.355 336.919 107.681 340.155C108.018 343.493 112.396 345.096 114.472 342.225C116.282 339.723 115.632 328.274 115.619 324.938C115.612 323.785 115.574 322.624 115.619 321.474C117.258 319.543 118.892 317.525 120.83 315.886C127.04 323.313 135.442 336.001 142.12 342.232C144.427 344.385 149.067 343.734 148.559 339.846C147.921 334.969 130.268 316.229 126.613 310.652C131.289 302.516 143.977 293.903 147.848 286.928C149.555 283.851 146.515 281.001 143.47 281.535ZM182.1 281.535C173.63 284.226 172.014 298.161 169.543 305.945L163.252 325.84C162.38 328.616 154.519 346.379 164.373 343.261C167.126 342.389 169.755 330.857 170.91 327.699L183.875 327.699L195.069 327.699C196.158 331.084 198.567 342.052 201.398 343.417C203.271 344.32 205.887 342.923 206.557 341.06C207.483 338.485 204.638 331.709 203.856 329.115L193.594 295.475C191.71 289.364 190.226 280.929 182.1 281.535Z"/>
	<path fill="#FED700" transform="scale(2 2)" d="M115.619 310.652C120.127 304.612 138.452 284.216 143.47 281.535C146.515 281.001 149.555 283.851 147.848 286.928C143.977 293.903 131.289 302.516 126.613 310.652C130.268 316.229 147.921 334.969 148.559 339.846C149.067 343.734 144.427 344.385 142.12 342.232C135.442 336.001 127.04 323.313 120.83 315.886C118.892 317.525 117.258 319.543 115.619 321.474C115.574 322.624 115.612 323.785 115.619 324.938C115.632 328.274 116.282 339.723 114.472 342.225C112.396 345.096 108.018 343.493 107.681 340.155C107.355 336.919 107.508 333.579 107.505 330.327L107.507 296.899C107.506 292.664 106.175 274.572 115.619 283.685C115.633 292.662 115.392 301.681 115.619 310.652Z"/>
	<path fill="#FED700" transform="scale(2 2)" d="M170.91 327.699C169.755 330.857 167.126 342.389 164.373 343.261C154.519 346.379 162.38 328.616 163.252 325.84L169.543 305.945C172.014 298.161 173.63 284.226 182.1 281.535C190.226 280.929 191.71 289.364 193.594 295.475L203.856 329.115C204.638 331.709 207.483 338.485 206.557 341.06C205.887 342.923 203.271 344.32 201.398 343.417C198.567 342.052 196.158 331.084 195.069 327.699L183.875 327.699L170.91 327.699ZM183.31 290.156C181.003 293.486 175.321 314.267 173.348 319.842C176.667 320.025 179.989 319.91 183.31 319.842L192.977 319.842C191.83 316.065 184.625 291.569 183.31 290.156Z"/>
	<path fill="#FE218B" transform="scale(2 2)" d="M173.348 319.842C175.321 314.267 181.003 293.486 183.31 290.156C184.625 291.569 191.83 316.065 192.977 319.842L183.31 319.842C179.989 319.91 176.667 320.025 173.348 319.842Z"/>
	<path fill="#21B0FE" transform="scale(2 2)" d="M263.496 321.474L426.703 321.474C428.488 321.394 430.253 321.419 432.038 321.474C432.107 348.818 432.23 363.515 399.438 363.469L299.68 363.457C289.678 363.479 282.092 364.943 273.269 359.266C264.362 352.488 263.472 345.107 263.476 334.31L263.496 321.474Z"/>
</svg>
